<svg xmlns="http://www.w3.org/2000/svg" viewBox="0 0 595.28 841.89" fill="#FFFFFF" aria-hidden="true"><path d="M595.07,304.13c2.58-45.86-18.63-99.7-75.67-132.18-32.54-20.3-77.86-32.94-125.46-39.54L500.25,0H113.42l106.2,130.17c-54.14,5.72-107.06,18.89-143.74,41.78C18.85,204.43-2.37,258.28.21,304.13c-2.58,45.86,18.64,99.69,75.67,132.18,11.17,6.97,23.9,12.99,37.64,18.23-13.75,5.23-26.48,11.26-37.64,18.22C18.85,505.24-2.37,559.09.21,604.95c-2.58,45.86,18.64,99.69,75.67,132.18,29.23,18.23,68.79,30.28,111.03,37.34l-42.5,67.43h312.24l-58.06-65.88c45.89-6.77,89.33-19.25,120.8-38.88,57.04-32.48,78.26-86.32,75.68-132.18,2.58-45.86-18.63-99.7-75.67-132.18-11.16-6.96-23.9-12.99-37.64-18.22,13.75-5.24,26.48-11.26,37.64-18.23,57.04-32.48,78.26-86.32,75.68-132.18Z"/></svg>
