<svg xmlns="http://www.w3.org/2000/svg" viewBox="0 0 595.28 841.89" fill="currentColor" aria-hidden="true"><path d="M545.28,541.03c-30.49-17.62-77.65-19.21-119.15-24.71-9.99-1.32-39.01-5.04-42.25-5.59-27.54-4.73-48.49-28.7-48.49-57.57,0-21.11,8.36-41.48,33.52-56.56,13.16-7.89,54.92-24.29,119.34-29.27,23.83-1.84,40.22-4.73,51.35-9.45,32.52-12.29,55.69-43.6,55.69-80.4,0-47.51-38.55-86.03-86.11-86.03-8.37,0-16.44,1.25-24.08,3.48-19.69,4.1-43.04,20-69.73,50.4-6.54,7.45-34.78,31.86-36.48,33.12-6.06,4.48-13.54,7.16-21.66,7.16-20.23,0-36.63-16.39-36.63-36.6,0-9.88,3.96-18.81,10.33-25.4,1.31-2.22,33.81-37.74,36.55-40.19,21.53-19.23,35.12-47.13,35.12-78.26,0-58.07-47.12-105.15-105.24-105.15s-104.85,47.07-105.24,105.15c-.12,18.15,4.04,29.07,4.71,31.17.03.08.06.16.08.24,4.11,15.01,17.73,34.28,16.56,45.87-.78,7.72-6.29,14.04-14.05,14.04-16.92,0-23.94-22.93-33.3-35.2-11.38-14.92-23.28-26.96-35.06-36.03-13.89-13.16-32.61-21.28-53.27-21.28C34.95,103.96.23,138.65.23,181.43s34.71,77.47,77.54,77.47,69.72,3.32,88.78,8.69c55.5,15.62,66.52,50.82,66.52,69.92,0,15.12-8.38,31.72-27.11,31.72-7.65,0-23.62,1.4-40.53-35.9-13.19-30.6-43.63-52.04-79.09-52.04-46.52,0-84.33,36.89-85.95,82.97-3.87,40.36,21.48,73.62,59.89,87.46,15.7,4.99,32.21,4.72,48.48,2.38,23.22-3.34,53.77-15.74,77.32-15.74,8.32,0,15.91,2.88,22.06,7.55.88.63,1.72,1.34,2.54,2.09,1.5,1.37,2.85,2.87,4.11,4.47l.04.05c3.6,4.6,6.16,10,7.23,15.99,2.84,11.91-.5,21.63-7.6,29.32-4.03,4.99-9.27,8.9-15.36,11.23-27.51,10.66-72,7.94-102.92,9.04C43.22,520,.23,561.03.23,613.97s42.95,95.85,95.93,95.85c34.39,0,64.73-24.3,72.27-32.94.09-.09.18-.16.27-.25,14.36-14.34,23.96-34.19,33.28-49.8,1.11-1.86,11.52-25.22,30.03-25.22,15.5,0,31.52,12.23,27.09,33.18-6.84,32.37-42.62,207.1-42.62,207.1h167.45l-49.72-184.98s-6.2-25.13-5.65-38.53c.71-17.29,14.05-31.05,31.37-31.34,17.55-.29,29.67,17.61,31.54,19.86,16.8,20.35,42.61,60.47,59.69,75.66,15.48,13.77,35.65,22.51,58.01,22.51,47.55,0,86.11-38.51,86.11-86.03,0-34.61-20.5-64.37-50-78.02Z"/></svg>
